<svg width="225" height="68" viewBox="0 0 225 68" fill="none" xmlns="http://www.w3.org/2000/svg">
<path d="M82.8214 31.6026C81.4286 31.6026 80.1786 31.3163 79.0357 30.7794C77.8928 30.2068 77 29.4552 76.2857 28.4531L79.3214 25.8763C79.75 26.4847 80.3214 26.9857 80.9643 27.3436C81.6071 27.7015 82.2857 27.8805 82.9643 27.8805C83.6071 27.8805 84.1428 27.7373 84.5357 27.4868C84.9286 27.2005 85.1071 26.8426 85.1071 26.4131C85.1071 25.9478 84.9286 25.59 84.5357 25.2321C84.1428 24.91 83.5357 24.5878 82.6428 24.3015L81.3928 23.8721C78.4286 22.87 76.9286 21.1878 76.9286 18.7542C76.9286 17.0721 77.5 15.7478 78.6428 14.7815C79.7857 13.8152 81.25 13.3142 83.0357 13.3142C85.3214 13.3142 87.2143 14.1373 88.75 15.7478L86.1786 18.5036C85.3571 17.5373 84.3571 17.0363 83.1071 17.0363C82.5357 17.0363 82.0357 17.1436 81.6071 17.3942C81.1786 17.6447 80.9643 17.9668 80.9643 18.3963C80.9643 18.8615 81.1786 19.2194 81.5714 19.47C81.9643 19.7563 82.6786 20.0784 83.7143 20.4363L84.9643 20.9015C87.7857 21.9036 89.1786 23.6931 89.1786 26.1984C89.1786 27.8089 88.5714 29.1331 87.3929 30.1352C86.1786 31.1015 84.6786 31.6026 82.8214 31.6026Z" fill="white"/>
<path d="M91.8929 31.28V13.6H95.8572V31.3158H91.8929V31.28Z" fill="white"/>
<path d="M99.5714 13.6H103.179L108.679 21.2232L114.214 13.6H117.821V31.3158H113.857V20.4L108.714 27.5221L103.536 20.3642V31.28H99.5714V13.6Z" fill="white"/>
<path d="M136.143 28.9179C134.357 30.7074 132.214 31.6021 129.679 31.6021C127.143 31.6021 125 30.7074 123.214 28.9179C121.429 27.1284 120.536 24.9811 120.536 22.44C120.536 19.8989 121.429 17.7516 123.214 15.9621C125 14.1726 127.143 13.2779 129.679 13.2779C132.214 13.2779 134.357 14.1726 136.143 15.9621C137.929 17.7516 138.821 19.8989 138.821 22.4042C138.821 24.9453 137.929 27.0926 136.143 28.9179ZM126.036 26.1979C127.036 27.2358 128.25 27.7726 129.679 27.7726C131.107 27.7726 132.321 27.2358 133.321 26.1979C134.321 25.16 134.821 23.9074 134.821 22.4758C134.821 21.0442 134.321 19.7916 133.321 18.7537C132.321 17.7158 131.107 17.1789 129.679 17.1789C128.25 17.1789 127.036 17.7158 126.036 18.7537C125.036 19.7916 124.536 21.0442 124.536 22.4758C124.536 23.9074 125.036 25.1242 126.036 26.1979Z" fill="white"/>
<path d="M157.536 31.28H154.143L145.536 20.3284V31.28H141.571V13.6H144.964L153.536 24.5516V13.6H157.5V31.28H157.536Z" fill="white"/>
<path d="M175.857 28.9179C174.071 30.7074 171.929 31.6021 169.393 31.6021C166.857 31.6021 164.714 30.7074 162.929 28.9179C161.143 27.1284 160.25 24.9811 160.25 22.44C160.25 19.8989 161.143 17.7516 162.929 15.9621C164.714 14.1726 166.857 13.2779 169.393 13.2779C171.929 13.2779 174.071 14.1726 175.857 15.9621C177.643 17.7516 178.536 19.8989 178.536 22.4042C178.536 24.9453 177.643 27.0926 175.857 28.9179ZM165.75 26.1979C166.75 27.2358 167.964 27.7726 169.393 27.7726C170.821 27.7726 172.036 27.2358 173.036 26.1979C174.036 25.16 174.536 23.9074 174.536 22.4758C174.536 21.0442 174.036 19.7916 173.036 18.7537C172.036 17.7158 170.821 17.1789 169.393 17.1789C167.964 17.1789 166.75 17.7158 165.75 18.7537C164.75 19.7916 164.25 21.0442 164.25 22.4758C164.25 23.9074 164.75 25.1242 165.75 26.1979Z" fill="white"/>
<path d="M185.893 31.28L178.679 13.6H182.964L187.679 25.3747L192.357 13.6H196.714L189.464 31.3158H185.893V31.28Z" fill="white"/>
<path d="M77.5358 38.5095H81.1429L86.6429 46.1327L92.1786 38.5095H95.7858V56.2253H91.8215V45.3453L86.6786 52.4674L81.5 45.3095V56.2253H77.5358V38.5095Z" fill="white"/>
<path d="M97.6429 56.2253L105.214 38.5095H108.786L116.357 56.2253H112.214L110.643 52.5032H103.321L101.75 56.2253H97.6429ZM107 43.7348L104.75 49.0316H109.214L107 43.7348Z" fill="white"/>
<path d="M118.214 56.2253V38.5095H125.179C126.786 38.5095 128.107 39.0105 129.143 40.0484C130.143 41.0863 130.643 42.339 130.643 43.8421C130.643 46.0611 129.5 47.6 127.179 48.3874L133.429 56.1895H128.679L122.786 48.8884H122.143V56.1895H118.214V56.2253ZM122.143 45.56H124.679C125.286 45.56 125.75 45.4169 126.143 45.0948C126.5 44.7727 126.714 44.379 126.714 43.8779C126.714 43.3411 126.536 42.9474 126.143 42.6253C125.75 42.3032 125.286 42.16 124.679 42.16H122.143V45.56Z" fill="white"/>
<path d="M145.786 56.2253L138.607 48.3158V56.2253H134.679V38.5095H138.607V45.9179L144.607 38.5095H149.464L142.5 47.0274L150.893 56.2253H145.786Z" fill="white"/>
<path d="M152.071 56.2253V38.5095H163.25V42.3032H156V45.4527H161.786V49.2463H156.036V52.3958H163.286V56.1895H152.071V56.2253Z" fill="white"/>
<path d="M169.464 56.2253V42.3032H164.964V38.5095H178V42.3032H173.464V56.2253H169.464Z" fill="white"/>
<path d="M180.393 56.2253V38.5095H184.357V56.2253H180.393Z" fill="white"/>
<path d="M204.071 56.2253H200.679L192.071 45.2737V56.2253H188.107V38.5095H191.5L200.071 49.4611V38.5095H204.036V56.2253H204.071Z" fill="white"/>
<path d="M216.429 56.5116C213.679 56.5116 211.393 55.6526 209.572 53.899C207.75 52.1453 206.822 49.9621 206.822 47.3853C206.822 44.8442 207.679 42.6611 209.429 40.9074C211.179 39.1537 213.393 38.259 216.107 38.259C219.143 38.259 221.571 39.2611 223.357 41.2653L220.571 43.9853C219.393 42.7326 217.893 42.0884 216.107 42.0884C214.536 42.0884 213.286 42.6253 212.286 43.6632C211.286 44.7011 210.786 45.9537 210.786 47.4211C210.786 48.96 211.286 50.2126 212.286 51.2148C213.286 52.2169 214.643 52.7179 216.357 52.7179C217.929 52.7179 219.072 52.4316 219.786 51.859V49.2463H216.322V45.5242H223.643V53.9347C222.893 54.7937 221.857 55.4379 220.571 55.9032C219.321 56.2969 217.929 56.5116 216.429 56.5116Z" fill="white"/>
<path d="M0.464233 37.6505C0.464233 37.4358 0.464233 37.2211 0.499948 37.0063C0.749948 35.4674 1.82138 34.179 3.28566 33.6779L43.5 20.4C44.7857 19.9705 46.1785 20.2926 47.1428 21.2948C48.1071 22.2969 48.4285 23.6569 47.9642 24.9453L34.0357 64.9937C33.5357 66.4611 32.2499 67.5347 30.6785 67.7495C29.1071 67.9642 27.6071 67.32 26.7142 66.0316C26.5714 65.8526 26.4642 65.6379 26.3928 65.4232L19.7142 49.2463C19.6428 49.0674 19.5357 48.96 19.3571 48.8884L2.74995 41.3369C2.53566 41.2295 2.35709 41.1221 2.17852 41.0147C1.10709 40.2274 0.464233 38.9747 0.464233 37.6505ZM45.3214 23.7642C45.3214 23.5137 45.1785 23.3705 45.1071 23.299C45 23.1916 44.75 23.0126 44.3928 23.12L4.21423 36.3979C3.53566 36.6126 3.3928 37.1853 3.35709 37.4358C3.28566 37.9369 3.46423 38.4021 3.85709 38.6884C3.85709 38.6884 3.8928 38.6884 3.92852 38.7242L20.4999 46.2042C21.3214 46.5621 21.9642 47.2421 22.3214 48.1011L28.9999 64.2779C29.0357 64.3495 29.0357 64.3495 29.0357 64.3495C29.3214 64.7432 29.7857 64.9579 30.2499 64.8863C30.4999 64.8505 31.0714 64.7074 31.2857 64.0274L45.2142 23.979C45.2857 23.9074 45.3214 23.8358 45.3214 23.7642Z" fill="#FF3D00"/>
<path d="M29.1428 7.76633C29.1428 7.40843 29.2857 7.05054 29.5714 6.76422C30.1428 6.19159 31.0357 6.19159 31.6071 6.76422L38.1785 13.3495C38.75 13.9221 38.75 14.8169 38.1785 15.3895C37.6071 15.9621 36.7143 15.9621 36.1428 15.3895L29.5714 8.80422C29.2857 8.51791 29.1428 8.16001 29.1428 7.76633Z" fill="#FF3D00"/>
<path d="M52.2499 14.3516C52.2499 13.9937 52.3928 13.6358 52.6785 13.3495L59.2499 6.76422C59.8214 6.19159 60.7142 6.19159 61.2857 6.76422C61.8571 7.33685 61.8571 8.23159 61.2857 8.80422L54.7142 15.3895C54.1428 15.9621 53.2499 15.9621 52.6785 15.3895C52.3928 15.0674 52.2499 14.7095 52.2499 14.3516Z" fill="#FF3D00"/>
<path d="M43.9642 10.9158V1.61053C43.9642 0.823166 44.6071 0.178955 45.3928 0.178955C46.1785 0.178955 46.8214 0.823166 46.8214 1.61053V10.9158C46.8214 11.7032 46.1785 12.3474 45.3928 12.3474C44.6071 12.3474 43.9642 11.7032 43.9642 10.9158Z" fill="#FF3D00"/>
<path d="M52.1428 30.8147C52.1428 30.4568 52.2857 30.099 52.5714 29.8126C53.1428 29.24 54.0357 29.24 54.6071 29.8126L61.1785 36.3979C61.75 36.9705 61.75 37.8653 61.1785 38.4379C60.6071 39.0105 59.7142 39.0105 59.1428 38.4379L52.5714 31.8526C52.2857 31.5663 52.1428 31.1726 52.1428 30.8147Z" fill="#FF3D00"/>
<path d="M55.5714 22.5474C55.5714 21.76 56.2143 21.1158 57 21.1158H66.2857C67.0714 21.1158 67.7143 21.76 67.7143 22.5474C67.7143 23.3347 67.0714 23.979 66.2857 23.979H57C56.2143 23.979 55.5714 23.3347 55.5714 22.5474Z" fill="#FF3D00"/>
<path d="M45.3959 20.6203L19.0564 47.0152L21.0767 49.0398L47.4161 22.6449L45.3959 20.6203Z" fill="#FF3D00"/>
</svg>
