<svg xmlns="http://www.w3.org/2000/svg" width="27" height="45" viewBox="0 0 27 45"><g><g><g/><g><g><g><path fill="#ff3d00" d="M22.293 9.756a3.96 3.96 0 0 1 3.955 3.955v17.578a3.96 3.96 0 0 1-3.955 3.955h-.656l-1.562 8.671A1.318 1.318 0 0 1 18.778 45H8.23a1.318 1.318 0 0 1-1.298-1.085l-1.562-8.67h-.656A3.96 3.96 0 0 1 .76 31.288V13.711a3.96 3.96 0 0 1 3.955-3.955h.656l1.562-8.671A1.318 1.318 0 0 1 8.231 0h10.547c.638 0 1.184.457 1.297 1.085l1.563 8.67zm-14.243 0h10.908l-1.282-7.12H9.332zm10.908 25.488H8.05l1.283 7.12h8.342zm4.654-21.533a1.32 1.32 0 0 0-1.319-1.318H4.715a1.32 1.32 0 0 0-1.318 1.318v17.578a1.32 1.32 0 0 0 1.318 1.318h17.578a1.32 1.32 0 0 0 1.319-1.318z"/></g></g></g><g><g><g><path fill="#ff3d00" d="M20.24 17.516a1.318 1.318 0 0 0-1.865 0l-4.756 4.756-3.118-3.118a1.318 1.318 0 1 0-1.865 1.864l4.05 4.05a1.318 1.318 0 0 0 1.865 0l5.688-5.688a1.318 1.318 0 0 0 0-1.864z"/></g></g></g></g></g></svg>