<svg xmlns="http://www.w3.org/2000/svg" width="37" height="45" viewBox="0 0 37 45"><g><g><g/><g><g><g><path fill="#ff3d00" d="M36.86 26.405a1.318 1.318 0 0 1-1.224 1.808H14.542a1.321 1.321 0 0 1-1.318-1.318v-3.077H2.677v19.864a1.318 1.318 0 0 1-2.637 0V1.318a1.318 1.318 0 0 1 2.637 0v2.286h16.26c.728 0 1.318.59 1.318 1.318v3.076h15.38a1.318 1.318 0 0 1 1.225 1.808l-3.32 8.3zM17.618 6.24H2.677v14.942h14.941V6.24zm16.07 19.336l-2.792-6.98a1.319 1.319 0 0 1 0-.98l2.792-6.981H20.255V22.5c0 .334-.135.68-.387.932l-2.143 2.144z"/></g></g></g></g></g></svg>