<svg xmlns="http://www.w3.org/2000/svg" width="25" height="25" viewBox="0 0 25 25"><g><g><g/><g><g><path fill="#fff" d="M18.1 0C21.906 0 25 3.095 25 6.9v11.2c0 3.805-3.095 6.9-6.9 6.9H6.9A6.907 6.907 0 0 1 0 18.1V6.9C0 3.094 3.095 0 6.899 0zm4.682 18.1V6.9c0-2.582-2.1-4.682-4.681-4.682H6.899c-2.581 0-4.68 2.1-4.68 4.681v11.202c0 2.58 2.099 4.68 4.68 4.68H18.1c2.58 0 4.68-2.1 4.68-4.68z"/></g><g><path fill="#fff" d="M18.944 12.502a6.449 6.449 0 0 1-6.442 6.441 6.449 6.449 0 0 1-6.442-6.441 6.45 6.45 0 0 1 6.442-6.442 6.45 6.45 0 0 1 6.442 6.442zm-2.218 0a4.228 4.228 0 0 0-4.224-4.224 4.228 4.228 0 0 0-4.224 4.224 4.228 4.228 0 0 0 4.224 4.223 4.228 4.228 0 0 0 4.224-4.223z"/></g><g><path fill="#fff" d="M19.217 4.18c-.428 0-.848.173-1.15.476a1.634 1.634 0 0 0-.477 1.15c0 .428.174.848.478 1.151a1.64 1.64 0 0 0 1.149.476c.428 0 .847-.174 1.15-.476.303-.303.476-.723.476-1.15 0-.43-.173-.85-.476-1.15a1.634 1.634 0 0 0-1.15-.477z"/></g></g></g></g></svg>