<svg xmlns="http://www.w3.org/2000/svg" width="18" height="18" viewBox="0 0 18 18"><g><g><g/><g><g><g><path fill="#ff3d00" d="M10.981 7.02a4.2 4.2 0 0 0-5.939 0l-3.815 3.818a4.2 4.2 0 0 0 5.936 5.942l3.15-3.15a.3.3 0 0 0-.214-.512h-.12a5.048 5.048 0 0 1-1.92-.372.3.3 0 0 0-.326.066l-2.265 2.267a1.8 1.8 0 1 1-2.546-2.546l3.83-3.828a1.8 1.8 0 0 1 2.544 0 1.23 1.23 0 0 0 1.685 0 1.2 1.2 0 0 0 .348-.761 1.2 1.2 0 0 0-.348-.924z"/></g></g></g><g><g><g><path fill="#ff3d00" d="M16.768 1.23a4.2 4.2 0 0 0-5.94 0L7.683 4.373a.3.3 0 0 0 .22.513h.11a5.04 5.04 0 0 1 1.917.375.3.3 0 0 0 .327-.066l2.258-2.255a1.8 1.8 0 0 1 2.547 2.546l-2.814 2.81-.024.028-.983.978a1.8 1.8 0 0 1-2.544 0 1.23 1.23 0 0 0-1.686 0 1.2 1.2 0 0 0 0 1.692c.348.348.754.632 1.2.84.063.03.126.053.19.08.062.027.128.048.191.072.063.024.13.045.192.063l.177.048c.12.03.24.054.363.075.148.022.297.036.447.042H9.998l.18-.021c.066-.003.135-.018.213-.018h.102l.207-.03.096-.018.174-.036h.033a4.198 4.198 0 0 0 1.946-1.104l3.819-3.818a4.2 4.2 0 0 0 0-5.939z"/></g></g></g></g></g></svg>