<svg xmlns="http://www.w3.org/2000/svg" width="153" height="64" viewBox="0 0 153 64"><g><g><g><path fill="#fff" d="M1.16 17.416V.98h10.382V4.5H4.808v2.922h5.34v3.52h-5.34v2.922h6.734v3.52H1.16z"/></g><g><path fill="#fff" d="M19.373 17.416L12.64.98h3.98l4.378 10.924L25.343.98h4.047l-6.733 16.436z"/></g><g><path fill="#fff" d="M38.442 17.684c-2.554 0-4.677-.796-6.368-2.423-1.692-1.627-2.554-3.653-2.554-6.044 0-2.357.796-4.383 2.421-6.01C33.566 1.58 35.623.75 38.144.75c2.819 0 5.074.93 6.733 2.79L42.29 6.062c-1.095-1.162-2.488-1.76-4.146-1.76-1.46 0-2.62.498-3.55 1.46-.928.964-1.392 2.126-1.392 3.487 0 1.428.464 2.59 1.393 3.52.928.93 2.189 1.395 3.78 1.395 1.46 0 2.522-.266 3.185-.797v-2.424h-3.217V7.457h6.799v7.804c-.697.796-1.658 1.394-2.852 1.826-1.161.398-2.455.597-3.848.597z"/></g><g><path fill="#fff" d="M48.06 17.416V.98h10.382V4.5h-6.734v2.922h5.34v3.52h-5.34v2.922h6.734v3.52H48.06z"/></g><g><path fill="#fff" d="M76.056 17.416h-3.151l-7.993-10.16v10.16H61.23V.98h3.15l7.961 10.16V.98h3.682v16.436z"/></g><g><path fill="#fff" d="M83.98 17.416v-6.94L78.01.98h4.279l3.549 5.91L89.386.98h4.28l-5.971 9.53v6.907z"/></g><g><path fill="#fff" d="M6.04 40.798c-1.294 0-2.455-.266-3.516-.764-1.061-.531-1.89-1.228-2.554-2.158l2.82-2.391c.397.564.928 1.03 1.525 1.361.63.332 1.227.498 1.857.498.597 0 1.095-.132 1.46-.365.365-.266.53-.598.53-.996 0-.432-.165-.764-.53-1.096-.365-.299-.929-.597-1.758-.863l-1.161-.399c-2.753-.93-4.146-2.49-4.146-4.748 0-1.56.53-2.79 1.592-3.686 1.061-.896 2.421-1.361 4.08-1.361 2.122 0 3.88.764 5.306 2.258l-2.388 2.557c-.762-.897-1.691-1.362-2.852-1.362-.53 0-.995.1-1.393.332-.398.233-.597.532-.597.93 0 .432.199.764.564.996.365.266 1.028.565 1.99.897l1.16.431c2.621.93 3.914 2.59 3.914 4.915 0 1.494-.563 2.723-1.658 3.652-1.128.897-2.52 1.362-4.245 1.362z"/></g><g><path fill="#fff" d="M14.46 40.533V24.13h3.682v16.436H14.46z"/></g><g><path fill="#fff" d="M21.59 24.13h3.35l5.108 7.073 5.14-7.073h3.35v16.436h-3.68V30.472L30.08 37.08l-4.81-6.641v10.127H21.59z"/></g><g><path fill="#fff" d="M55.554 38.31c-1.658 1.66-3.648 2.491-6.003 2.491s-4.345-.83-6.003-2.49c-1.659-1.66-2.488-3.653-2.488-6.01 0-2.358.83-4.35 2.488-6.01 1.658-1.66 3.648-2.491 6.003-2.491s4.345.83 6.003 2.49c1.659 1.66 2.488 3.653 2.488 5.977 0 2.391-.83 4.383-2.488 6.044zm-9.353-2.523c.929.963 2.056 1.461 3.383 1.461s2.454-.498 3.383-1.461c.929-.963 1.393-2.125 1.393-3.453 0-1.329-.464-2.49-1.393-3.454-.929-.963-2.056-1.46-3.383-1.46s-2.454.497-3.383 1.46c-.929.963-1.393 2.125-1.393 3.454 0 1.328.431 2.49 1.393 3.453z"/></g><g><path fill="#fff" d="M75.426 40.533h-3.15l-7.994-10.16v10.16H60.6V24.13h3.15l7.961 10.16V24.13h3.682v16.403z"/></g><g><path fill="#fff" d="M92.444 38.31c-1.658 1.66-3.648 2.491-6.003 2.491s-4.345-.83-6.003-2.49c-1.659-1.66-2.488-3.653-2.488-6.01 0-2.358.83-4.35 2.488-6.01 1.658-1.66 3.648-2.491 6.003-2.491s4.345.83 6.003 2.49c1.659 1.66 2.488 3.653 2.488 5.977 0 2.391-.83 4.383-2.488 6.044zm-9.386-2.523c.929.963 2.056 1.461 3.383 1.461s2.454-.498 3.383-1.461c.929-.963 1.393-2.125 1.393-3.453 0-1.329-.464-2.49-1.393-3.454-.929-.963-2.056-1.46-3.383-1.46s-2.454.497-3.383 1.46c-.929.963-1.393 2.125-1.393 3.454 0 1.328.464 2.49 1.393 3.453z"/></g><g><path fill="#fff" d="M101.763 40.536L95.03 24.1h3.98l4.378 10.924 4.345-10.924h4.047l-6.733 16.436z"/></g><g><path fill="#fff" d="M10.845 48.87c1.094 1.096 1.658 2.424 1.658 3.985 0 1.594-.564 2.922-1.658 3.984-1.095 1.063-2.488 1.594-4.113 1.594h-1.89v5.214H1.16V47.21h5.572c1.625.033 3.018.564 4.113 1.66zm-1.924 3.985c0-.631-.199-1.13-.63-1.528-.431-.398-.962-.597-1.625-.597H4.808v4.316h1.858c.663 0 1.194-.199 1.625-.63.431-.432.63-.963.63-1.561z"/></g><g><path fill="#fff" d="M14.86 47.24h6.468c1.525 0 2.72.465 3.681 1.428.929.963 1.393 2.125 1.393 3.52 0 2.058-1.061 3.486-3.217 4.217l5.804 7.238h-4.41l-5.474-6.774h-.563v6.774H14.86zm3.648 6.508h2.355c.564 0 .995-.133 1.36-.431.332-.3.53-.665.53-1.13 0-.498-.165-.863-.53-1.162-.331-.265-.796-.431-1.36-.431h-2.355z"/></g><g><path fill="#fff" d="M43.084 61.45c-1.658 1.66-3.648 2.491-6.003 2.491s-4.345-.83-6.003-2.49c-1.659-1.66-2.488-3.653-2.488-6.01 0-2.358.83-4.35 2.488-6.01 1.658-1.66 3.648-2.491 6.003-2.491s4.345.863 6.003 2.524c1.659 1.66 2.488 3.652 2.488 5.976 0 2.325-.83 4.35-2.488 6.01zm-9.386-2.523c.929.963 2.056 1.461 3.383 1.461s2.454-.498 3.383-1.461c.929-.963 1.393-2.125 1.393-3.453 0-1.329-.464-2.49-1.393-3.454-.929-.963-2.056-1.46-3.383-1.46s-2.454.497-3.383 1.46c-.929.963-1.393 2.125-1.393 3.454 0 1.328.464 2.49 1.393 3.453z"/></g><g><path fill="#fff" d="M48.13 47.24h5.572c2.322 0 4.279.797 5.904 2.39 1.625 1.595 2.454 3.554 2.454 5.812 0 2.258-.829 4.217-2.454 5.81-1.625 1.594-3.615 2.391-5.904 2.391H48.13zm3.648 13.05h1.924c1.36 0 2.455-.465 3.35-1.395.896-.93 1.294-2.092 1.294-3.42 0-1.362-.432-2.49-1.294-3.42-.862-.93-1.99-1.395-3.35-1.395h-1.924z"/></g><g><path fill="#fff" d="M76.052 62.083c-1.26 1.228-2.886 1.86-4.876 1.86-1.99 0-3.615-.632-4.875-1.86-1.26-1.229-1.891-2.89-1.891-4.915V47.24h3.682v9.961c0 .963.265 1.727.829 2.325.564.564 1.293.863 2.222.863s1.658-.299 2.222-.863c.564-.565.83-1.328.83-2.325V47.24h3.681v9.928c.067 2.026-.564 3.686-1.824 4.915z"/></g><g><path fill="#fff" d="M88.79 63.941c-2.354 0-4.344-.83-6.002-2.49-1.659-1.66-2.488-3.653-2.488-6.01 0-2.358.83-4.35 2.488-6.01 1.658-1.66 3.648-2.491 6.003-2.491 1.692 0 3.184.398 4.544 1.229 1.36.83 2.388 1.892 3.118 3.254l-3.25 1.76c-.996-1.794-2.455-2.69-4.445-2.69-1.327 0-2.455.498-3.383 1.461-.929.963-1.393 2.125-1.393 3.453 0 1.328.464 2.49 1.393 3.454.928.962 2.056 1.46 3.383 1.46 1.957 0 3.45-.896 4.444-2.689l3.25 1.76a8.165 8.165 0 0 1-3.117 3.254c-1.36.797-2.886 1.295-4.544 1.295z"/></g><g><path fill="#fff" d="M101.56 63.676V50.76h-4.18v-3.52h12.106v3.52h-4.212v12.916z"/></g><g><path fill="#fff" d="M111.71 63.676V47.24h3.682v16.436z"/></g><g><path fill="#fff" d="M132.404 61.45c-1.658 1.66-3.648 2.491-6.003 2.491s-4.345-.83-6.003-2.49c-1.659-1.66-2.488-3.653-2.488-6.01 0-2.358.83-4.35 2.488-6.01 1.658-1.66 3.648-2.491 6.003-2.491s4.345.83 6.003 2.49c1.659 1.66 2.488 3.653 2.488 5.977 0 2.358-.83 4.383-2.488 6.044zm-9.386-2.523c.929.963 2.056 1.461 3.383 1.461s2.454-.498 3.383-1.461c.929-.963 1.393-2.125 1.393-3.453 0-1.329-.464-2.49-1.393-3.454-.929-.963-2.056-1.46-3.383-1.46s-2.454.497-3.383 1.46c-.929.963-1.393 2.125-1.393 3.454 0 1.328.464 2.49 1.393 3.453z"/></g><g><path fill="#fff" d="M152.276 63.676h-3.15l-7.994-10.16v10.16h-3.682V47.24h3.15l7.961 10.16V47.24h3.682v16.436z"/></g></g></g></svg>