<svg xmlns="http://www.w3.org/2000/svg" width="63" height="64" viewBox="0 0 63 64"><g><g><g><path fill="#ff3d00" d="M.59 35.48c0-.199 0-.398.033-.597a3.926 3.926 0 0 1 2.587-3.088l37.314-12.353a3.227 3.227 0 0 1 3.383.83 3.21 3.21 0 0 1 .763 3.387L31.734 60.816a3.83 3.83 0 0 1-3.117 2.557c-1.46.199-2.853-.399-3.682-1.594a1.844 1.844 0 0 1-.298-.565l-6.203-15.008a.548.548 0 0 0-.331-.333l-15.39-6.94a7.55 7.55 0 0 1-.531-.298A3.903 3.903 0 0 1 .59 35.48zm41.625-12.916c0-.233-.132-.366-.199-.432a.651.651 0 0 0-.663-.166L4.073 34.318c-.63.2-.763.73-.796.963-.067.465.1.897.464 1.162 0 0 .033 0 .066.034l15.39 6.94c.763.331 1.36.962 1.692 1.76l6.202 15.008.033.066c.266.366.697.565 1.128.498.232-.033.763-.166.962-.797l12.935-37.156a.617.617 0 0 0 .066-.232z"/></g><g><g><path fill="#ff3d00" d="M27.19 7.758c0-.332.133-.664.398-.93a1.32 1.32 0 0 1 1.89 0l6.103 6.11c.531.531.531 1.362 0 1.893a1.32 1.32 0 0 1-1.89 0l-6.103-6.143a1.312 1.312 0 0 1-.398-.93z"/></g><g><path fill="#ff3d00" d="M48.65 13.868c0-.332.133-.664.398-.93l6.103-6.11a1.32 1.32 0 0 1 1.89 0c.531.532.531 1.362 0 1.893l-6.102 6.11a1.32 1.32 0 0 1-1.891 0c-.265-.299-.398-.631-.398-.963z"/></g><g><path fill="#ff3d00" d="M40.95 10.681V2.049c0-.73.597-1.328 1.327-1.328s1.326.598 1.326 1.328v8.633c0 .731-.597 1.329-1.326 1.329-.73 0-1.327-.598-1.327-1.328z"/></g><g><g><path fill="#ff3d00" d="M48.55 29.138c0-.332.133-.664.398-.93a1.32 1.32 0 0 1 1.89 0l6.103 6.11c.531.531.531 1.362 0 1.893a1.32 1.32 0 0 1-1.89 0l-6.103-6.11c-.265-.299-.398-.63-.398-.963z"/></g><g><path fill="#ff3d00" d="M51.73 21.438c0-.73.597-1.328 1.327-1.328h8.623c.73 0 1.327.598 1.327 1.328 0 .73-.597 1.328-1.327 1.328h-8.623c-.73 0-1.327-.597-1.327-1.328z"/></g></g></g><g><path fill="#ff3d00" d="M44.173 21.54l-1.876-1.878L17.836 44.15l1.876 1.878z"/></g></g></g></svg>