<svg xmlns="http://www.w3.org/2000/svg" width="15" height="15" viewBox="0 0 15 15"><g><g><g/><g><g><g><path fill="#fff" d="M6.212 8.793C4.78 7.362 4.457 5.93 4.384 5.356a.514.514 0 0 1 .148-.43L5.69 3.768c.17-.17.2-.436.072-.64L3.92.263a.517.517 0 0 0-.67-.188L.287 1.469a.514.514 0 0 0-.284.514c.155 1.474.798 5.098 4.359 8.66 3.561 3.561 7.184 4.204 8.66 4.359a.514.514 0 0 0 .513-.285l1.395-2.961a.517.517 0 0 0-.188-.67l-2.864-1.843a.517.517 0 0 0-.64.072l-1.158 1.159a.514.514 0 0 1-.43.147c-.574-.073-2.006-.396-3.438-1.828z"/></g><g><path fill="#fff" d="M11.894 8.021a.517.517 0 0 1-.517-.517 3.884 3.884 0 0 0-3.88-3.88.517.517 0 0 1 0-1.034 4.92 4.92 0 0 1 4.914 4.914.517.517 0 0 1-.517.517z"/></g><g><path fill="#fff" d="M14.48 8.017a.517.517 0 0 1-.517-.517 6.473 6.473 0 0 0-6.466-6.466.517.517 0 1 1 0-1.034 7.508 7.508 0 0 1 7.5 7.5.517.517 0 0 1-.517.517z"/></g></g></g></g></g></svg>