<svg xmlns="http://www.w3.org/2000/svg" width="37" height="45" viewBox="0 0 37 45"><g><g><g><g><path fill="#ff3d00" d="M36.04 44.696a1.319 1.319 0 0 1-1.222.249L22.457 41.24c-.974 1.2-1.997 2.307-3.01 3.357a1.318 1.318 0 0 1-1.898 0c-1.194-1.237-2.167-2.323-3.006-3.358L2.177 44.945a1.318 1.318 0 0 1-1.69-1.405c.697-6.46 4.016-12.387 8.174-16.16a40.854 40.854 0 0 1-.27-4.88c0-8.13 3.252-15.977 9.158-22.097a1.318 1.318 0 0 1 1.897 0c5.906 6.12 9.16 13.968 9.16 22.097 0 1.74-.09 3.36-.27 4.88 4.174 3.79 7.478 9.722 8.172 16.16a1.32 1.32 0 0 1-.468 1.156zm-23.172-5.708c-1.838-2.724-2.99-5.476-3.663-8.429-2.883 3.13-4.945 7.08-5.787 11.26zm6.948 1.296c4.023-4.714 6.152-9.485 6.152-17.784 0-6.997-2.643-13.777-7.47-19.24-4.828 5.463-7.471 12.243-7.471 19.24 0 7.48 1.658 12.516 6.152 17.785V28.74a1.318 1.318 0 0 1 2.637 0zm13.761 1.536c-.843-4.19-2.91-8.14-5.787-11.26-.731 3.196-1.947 5.888-3.66 8.429z"/></g></g></g><g><g><g><path fill="#ff3d00" d="M23.4 15.428c-1.122-1.69-2.955-2.698-4.905-2.698-1.949 0-3.782 1.009-4.905 2.698a1.319 1.319 0 0 0 2.197 1.46c.642-.967 1.629-1.521 2.709-1.521s2.067.554 2.708 1.52a1.318 1.318 0 1 0 2.197-1.459z"/></g></g></g></g></svg>