<svg xmlns="http://www.w3.org/2000/svg" width="25" height="15" viewBox="0 0 25 15"><g><g><path fill="#fff" d="M24.777 13.093c-.067-.113-.483-1.016-2.483-2.872-2.094-1.944-1.813-1.628.71-4.99 1.536-2.047 2.15-3.297 1.957-3.831-.182-.51-1.312-.375-1.312-.375l-3.757.022s-.278-.038-.486.086c-.201.122-.33.403-.33.403s-.596 1.584-1.39 2.931c-1.673 2.843-2.344 2.993-2.617 2.816-.636-.41-.477-1.653-.477-2.534 0-2.755.417-3.904-.814-4.2-.41-.1-.71-.165-1.755-.176-1.34-.014-2.477.005-3.119.319-.428.21-.758.677-.556.703.248.033.81.152 1.11.558.385.524.371 1.702.371 1.702s.222 3.242-.517 3.645c-.508.277-1.203-.287-2.696-2.867-.764-1.32-1.342-2.782-1.342-2.782s-.11-.271-.31-.417a1.558 1.558 0 0 0-.577-.233l-3.573.022s-.536.016-.732.249c-.175.208-.014.636-.014.636S2.865 8.45 6.03 11.749c2.905 3.024 6.202 2.825 6.202 2.825h1.494s.452-.05.682-.298c.212-.228.204-.656.204-.656s-.03-2.005.902-2.3c.917-.291 2.095 1.937 3.344 2.795.944.648 1.661.506 1.661.506l3.34-.047s1.746-.107.918-1.481z"/></g></g></svg>