<svg xmlns="http://www.w3.org/2000/svg" width="23" height="23" viewBox="0 0 23 23"><g><g><path fill="#fff" d="M22.25 11.402c-.003 5.892-4.797 10.685-10.685 10.685h-.005c-1.788 0-3.545-.449-5.106-1.3L.79 22.273l1.516-5.537A10.666 10.666 0 0 1 .88 11.394C.882 5.503 5.675.71 11.565.71a10.615 10.615 0 0 1 7.558 3.134 10.62 10.62 0 0 1 3.126 7.559zm-10.685 8.88c4.895 0 8.878-3.983 8.88-8.88a8.828 8.828 0 0 0-2.598-6.283 8.82 8.82 0 0 0-6.279-2.604c-4.898 0-8.882 3.983-8.884 8.88-.001 1.678.468 3.312 1.357 4.726l.212.336-.898 3.277 3.362-.882.324.193a8.87 8.87 0 0 0 4.52 1.238zm5.382-6.339c.067.112.067.646-.155 1.27-.223.623-1.29 1.193-1.802 1.27-.46.068-1.042.097-1.682-.107a15.297 15.297 0 0 1-1.522-.562c-2.678-1.156-4.427-3.853-4.56-4.031-.134-.178-1.09-1.448-1.09-2.762s.689-1.96.934-2.227a.98.98 0 0 1 .712-.334c.178 0 .356.001.511.01.164.007.384-.063.601.457.223.535.756 1.85.823 1.983.067.133.112.29.022.468-.089.178-.378.554-.667.913-.118.147-.273.277-.117.545.156.267.691 1.141 1.485 1.849 1.02.91 1.88 1.191 2.147 1.325.267.134.423.111.578-.067.156-.178.668-.78.846-1.047.178-.267.356-.222.6-.133.245.09 1.558.735 1.825.868.267.134.445.2.511.312z"/></g></g></svg>